<svg viewBox="0 0 375 2400" xmlns="http://www.w3.org/2000/svg">
  <!-- 배경 -->
  <rect width="375" height="2400" fill="#F8FAFC"/>

  <!-- 헤더 -->
  <rect x="0" y="0" width="375" height="80" fill="#FFFFFF"/>
  <text x="24" y="35" font-size="20" font-weight="600" fill="#0F172A">UI Component Showcase</text>
  <text x="24" y="55" font-size="14" fill="#64748B">Defense Allies 디자인 시스템</text>

  <!-- 컬러 팔레트 섹션 -->
  <text x="24" y="110" font-size="16" font-weight="600" fill="#0F172A">Color Palette</text>

  <!-- Primary Colors -->
  <text x="24" y="135" font-size="12" font-weight="500" fill="#64748B">PRIMARY COLORS</text>
  <rect x="24" y="145" width="40" height="40" rx="8" fill="#2563EB"/>
  <text x="24" y="200" font-size="10" fill="#64748B">Main</text>
  <text x="24" y="212" font-size="10" fill="#64748B">#2563EB</text>

  <rect x="80" y="145" width="40" height="40" rx="8" fill="#10B981"/>
  <text x="80" y="200" font-size="10" fill="#64748B">Secondary</text>
  <text x="80" y="212" font-size="10" fill="#64748B">#10B981</text>

  <rect x="136" y="145" width="40" height="40" rx="8" fill="#F59E0B"/>
  <text x="136" y="200" font-size="10" fill="#64748B">Accent</text>
  <text x="136" y="212" font-size="10" fill="#64748B">#F59E0B</text>

  <!-- Neutral Colors -->
  <text x="200" y="135" font-size="12" font-weight="500" fill="#64748B">NEUTRAL COLORS</text>
  <rect x="200" y="145" width="30" height="30" rx="6" fill="#F8FAFC" stroke="#E2E8F0"/>
  <rect x="240" y="145" width="30" height="30" rx="6" fill="#FFFFFF" stroke="#E2E8F0"/>
  <rect x="280" y="145" width="30" height="30" rx="6" fill="#0F172A"/>
  <rect x="320" y="145" width="30" height="30" rx="6" fill="#64748B"/>

  <!-- 타이포그래피 섹션 -->
  <text x="24" y="250" font-size="16" font-weight="600" fill="#0F172A">Typography</text>

  <text x="24" y="280" font-size="24" font-weight="600" fill="#0F172A">Heading 1 - 24px/32px</text>
  <text x="24" y="310" font-size="20" font-weight="600" fill="#0F172A">Heading 2 - 20px/28px</text>
  <text x="24" y="335" font-size="18" font-weight="600" fill="#0F172A">Heading 3 - 18px/24px</text>

  <text x="24" y="365" font-size="16" font-weight="400" fill="#0F172A">Body Large - 16px/24px</text>
  <text x="24" y="385" font-size="14" font-weight="400" fill="#0F172A">Body Regular - 14px/20px</text>
  <text x="24" y="400" font-size="12" font-weight="400" fill="#64748B">Body Small - 12px/16px</text>

  <!-- 버튼 컴포넌트 섹션 -->
  <text x="24" y="440" font-size="16" font-weight="600" fill="#0F172A">Button Components</text>

  <!-- Primary Buttons -->
  <text x="24" y="465" font-size="12" font-weight="500" fill="#64748B">PRIMARY BUTTONS</text>

  <!-- Large Primary Button -->
  <rect x="24" y="475" width="327" height="48" rx="24" fill="#2563EB"/>
  <text x="187.5" y="505" text-anchor="middle" font-size="16" font-weight="500" fill="#FFFFFF">Large Primary Button</text>

  <!-- Medium Primary Button -->
  <rect x="24" y="535" width="200" height="40" rx="20" fill="#2563EB"/>
  <text x="124" y="560" text-anchor="middle" font-size="14" font-weight="500" fill="#FFFFFF">Medium Primary</text>

  <!-- Small Primary Button -->
  <rect x="240" y="535" width="111" height="32" rx="16" fill="#2563EB"/>
  <text x="295.5" y="555" text-anchor="middle" font-size="12" font-weight="500" fill="#FFFFFF">Small Primary</text>

  <!-- Secondary Buttons -->
  <text x="24" y="595" font-size="12" font-weight="500" fill="#64748B">SECONDARY BUTTONS</text>

  <rect x="24" y="605" width="327" height="48" rx="24" fill="#FFFFFF" stroke="#E2E8F0" stroke-width="1"/>
  <text x="187.5" y="635" text-anchor="middle" font-size="16" font-weight="500" fill="#0F172A">Secondary Button</text>

  <!-- Danger Button -->
  <rect x="24" y="665" width="159" height="40" rx="20" fill="#EF4444"/>
  <text x="103.5" y="690" text-anchor="middle" font-size="14" font-weight="500" fill="#FFFFFF">Danger Button</text>

  <!-- Ghost Button -->
  <rect x="192" y="665" width="159" height="40" rx="20" fill="transparent"/>
  <text x="271.5" y="690" text-anchor="middle" font-size="14" font-weight="500" fill="#2563EB">Ghost Button</text>

  <!-- 카드 컴포넌트 섹션 -->
  <text x="24" y="735" font-size="16" font-weight="600" fill="#0F172A">Card Components</text>

  <!-- Default Card -->
  <text x="24" y="760" font-size="12" font-weight="500" fill="#64748B">DEFAULT CARD</text>
  <rect x="24" y="770" width="327" height="80" rx="12" fill="#FFFFFF" stroke="#E2E8F0"/>
  <text x="40" y="795" font-size="14" font-weight="500" fill="#0F172A">Card Title</text>
  <text x="40" y="815" font-size="12" fill="#64748B">Card description with some additional information</text>
  <text x="40" y="830" font-size="12" fill="#64748B">that spans multiple lines.</text>

  <!-- Interactive Card -->
  <text x="24" y="875" font-size="12" font-weight="500" fill="#64748B">INTERACTIVE CARD</text>
  <rect x="24" y="885" width="159" height="100" rx="12" fill="#FFFFFF" stroke="#2563EB" stroke-width="2"/>
  <circle cx="64" cy="915" r="12" fill="#2563EB"/>
  <text x="88" y="920" font-size="14" font-weight="500" fill="#0F172A">Interactive</text>
  <text x="40" y="940" font-size="12" fill="#64748B">Clickable card with</text>
  <text x="40" y="955" font-size="12" fill="#64748B">hover effects</text>

  <!-- Status Cards -->
  <rect x="192" y="885" width="159" height="100" rx="12" fill="#FFFFFF" stroke="#E2E8F0"/>
  <rect x="208" y="901" width="4" height="68" fill="#22C55E"/>
  <text x="224" y="920" font-size="14" font-weight="500" fill="#0F172A">Success Status</text>
  <text x="224" y="940" font-size="12" fill="#64748B">Operation completed</text>
  <text x="224" y="955" font-size="12" fill="#64748B">successfully</text>

  <!-- 입력 필드 섹션 -->
  <text x="24" y="1015" font-size="16" font-weight="600" fill="#0F172A">Input Components</text>

  <!-- Text Input -->
  <text x="24" y="1040" font-size="12" font-weight="500" fill="#64748B">TEXT INPUT</text>
  <rect x="24" y="1050" width="327" height="44" rx="8" fill="#FFFFFF" stroke="#E2E8F0"/>
  <text x="40" y="1075" font-size="14" fill="#64748B">플레이어 닉네임 입력</text>

  <!-- Search Input -->
  <text x="24" y="1115" font-size="12" font-weight="500" fill="#64748B">SEARCH INPUT</text>
  <rect x="24" y="1125" width="327" height="44" rx="22" fill="#F8FAFC" stroke="#E2E8F0"/>
  <circle cx="45" cy="1147" r="8" fill="none" stroke="#64748B" stroke-width="1.5"/>
  <line x1="51" y1="1153" x2="55" y2="1157" stroke="#64748B" stroke-width="1.5"/>
  <text x="70" y="1152" font-size="14" fill="#64748B">친구 검색...</text>

  <!-- 토글 및 체크박스 -->
  <text x="24" y="1195" font-size="16" font-weight="600" fill="#0F172A">Toggle &amp; Checkbox</text>

  <!-- Toggle Switch -->
  <text x="24" y="1220" font-size="12" font-weight="500" fill="#64748B">TOGGLE SWITCH</text>
  <rect x="24" y="1230" width="48" height="24" rx="12" fill="#2563EB"/>
  <circle cx="44" cy="1242" r="8" fill="#FFFFFF"/>
  <text x="80" y="1247" font-size="14" fill="#0F172A">사운드 효과</text>

  <rect x="24" y="1260" width="48" height="24" rx="12" fill="#E2E8F0"/>
  <circle cx="32" cy="1272" r="8" fill="#FFFFFF"/>
  <text x="80" y="1277" font-size="14" fill="#0F172A">진동 피드백</text>

  <!-- Checkbox -->
  <rect x="200" y="1230" width="20" height="20" rx="4" fill="#2563EB"/>
  <polyline points="206,1238 210,1242 218,1234" fill="none" stroke="#FFFFFF" stroke-width="2"/>
  <text x="230" y="1245" font-size="14" fill="#0F172A">약관 동의</text>

  <rect x="200" y="1260" width="20" height="20" rx="4" fill="#FFFFFF" stroke="#E2E8F0"/>
  <text x="230" y="1275" font-size="14" fill="#0F172A">마케팅 수신 동의</text>

  <!-- 아이콘 섹션 -->
  <text x="24" y="1315" font-size="16" font-weight="600" fill="#0F172A">Icons &amp; Symbols</text>

  <!-- Game Icons -->
  <text x="24" y="1340" font-size="12" font-weight="500" fill="#64748B">GAME ICONS</text>

  <!-- Tower Icon -->
  <rect x="24" y="1350" width="32" height="32" rx="4" fill="#2563EB"/>
  <rect x="32" y="1358" width="16" height="16" rx="2" fill="#FFFFFF"/>
  <text x="24" y="1395" font-size="10" fill="#64748B">Tower</text>

  <!-- Health Icon -->
  <circle cx="88" cy="1366" r="16" fill="#EF4444"/>
  <text x="84" y="1372" font-size="12" font-weight="bold" fill="#FFFFFF">♥</text>
  <text x="80" y="1395" font-size="10" fill="#64748B">Health</text>

  <!-- Gold Icon -->
  <circle cx="144" cy="1366" r="16" fill="#F59E0B"/>
  <text x="140" y="1372" font-size="12" font-weight="bold" fill="#FFFFFF">$</text>
  <text x="136" y="1395" font-size="10" fill="#64748B">Gold</text>

  <!-- Wave Icon -->
  <rect x="184" y="1350" width="32" height="32" rx="16" fill="#10B981"/>
  <text x="196" y="1372" font-size="12" font-weight="bold" fill="#FFFFFF">~</text>
  <text x="192" y="1395" font-size="10" fill="#64748B">Wave</text>

  <!-- Navigation Icons -->
  <circle cx="248" cy="1366" r="16" fill="#64748B"/>
  <rect x="242" y="1360" width="12" height="12" rx="2" fill="#FFFFFF"/>
  <rect x="244" y="1362" width="8" height="2" fill="#64748B"/>
  <rect x="244" y="1365" width="8" height="2" fill="#64748B"/>
  <rect x="244" y="1368" width="8" height="2" fill="#64748B"/>
  <text x="240" y="1395" font-size="10" fill="#64748B">Settings</text>

  <circle cx="304" cy="1366" r="16" fill="#64748B"/>
  <circle cx="304" cy="1360" r="4" fill="#FFFFFF"/>
  <rect x="298" y="1368" width="12" height="8" rx="2" fill="#FFFFFF"/>
  <text x="296" y="1395" font-size="10" fill="#64748B">Profile</text>

  <!-- 상태 표시 컴포넌트 -->
  <text x="24" y="1435" font-size="16" font-weight="600" fill="#0F172A">Status Indicators</text>

  <!-- Progress Bar -->
  <text x="24" y="1460" font-size="12" font-weight="500" fill="#64748B">PROGRESS BAR</text>
  <rect x="24" y="1470" width="327" height="8" rx="4" fill="#E2E8F0"/>
  <rect x="24" y="1470" width="196" height="8" rx="4" fill="#2563EB"/>
  <text x="24" y="1495" font-size="12" fill="#64748B">경험치: 1,250 / 2,000 (60%)</text>

  <!-- Health Bar -->
  <rect x="24" y="1510" width="327" height="12" rx="6" fill="#E2E8F0"/>
  <rect x="24" y="1510" width="245" height="12" rx="6" fill="#22C55E"/>
  <text x="24" y="1540" font-size="12" fill="#64748B">체력: 75/100</text>

  <!-- 배지 및 라벨 -->
  <text x="24" y="1570" font-size="16" font-weight="600" fill="#0F172A">Badges &amp; Labels</text>

  <!-- Status Badges -->
  <rect x="24" y="1585" width="60" height="24" rx="12" fill="#22C55E"/>
  <text x="54" y="1601" text-anchor="middle" font-size="12" font-weight="500" fill="#FFFFFF">온라인</text>

  <rect x="94" y="1585" width="60" height="24" rx="12" fill="#F59E0B"/>
  <text x="124" y="1601" text-anchor="middle" font-size="12" font-weight="500" fill="#FFFFFF">대기중</text>

  <rect x="164" y="1585" width="60" height="24" rx="12" fill="#EF4444"/>
  <text x="194" y="1601" text-anchor="middle" font-size="12" font-weight="500" fill="#FFFFFF">오프라인</text>

  <!-- Level Badge -->
  <rect x="234" y="1585" width="40" height="24" rx="12" fill="#2563EB"/>
  <text x="254" y="1601" text-anchor="middle" font-size="12" font-weight="500" fill="#FFFFFF">Lv.15</text>

  <!-- Rank Badge -->
  <rect x="284" y="1585" width="67" height="24" rx="12" fill="#F59E0B"/>
  <text x="317.5" y="1601" text-anchor="middle" font-size="12" font-weight="500" fill="#FFFFFF">골드</text>

  <!-- 알림 및 모달 -->
  <text x="24" y="1645" font-size="16" font-weight="600" fill="#0F172A">Notifications &amp; Modals</text>

  <!-- Toast Notification -->
  <text x="24" y="1670" font-size="12" font-weight="500" fill="#64748B">TOAST NOTIFICATION</text>
  <rect x="24" y="1680" width="327" height="48" rx="8" fill="#22C55E"/>
  <circle cx="44" cy="1704" r="8" fill="#FFFFFF"/>
  <polyline points="40,1704 42,1706 46,1702" fill="none" stroke="#22C55E" stroke-width="2"/>
  <text x="60" y="1695" font-size="14" font-weight="500" fill="#FFFFFF">게임 승리!</text>
  <text x="60" y="1710" font-size="12" fill="#FFFFFF">경험치 +150, 골드 +300을 획득했습니다.</text>

  <!-- Error Toast -->
  <rect x="24" y="1740" width="327" height="48" rx="8" fill="#EF4444"/>
  <circle cx="44" cy="1764" r="8" fill="#FFFFFF"/>
  <text x="40" y="1768" text-anchor="middle" font-size="12" font-weight="bold" fill="#EF4444">!</text>
  <text x="60" y="1755" font-size="14" font-weight="500" fill="#FFFFFF">연결 오류</text>
  <text x="60" y="1770" font-size="12" fill="#FFFFFF">서버와의 연결이 끊어졌습니다. 다시 시도해주세요.</text>

  <!-- 리스트 아이템 -->
  <text x="24" y="1820" font-size="16" font-weight="600" fill="#0F172A">List Items</text>

  <!-- Friend List Item -->
  <text x="24" y="1845" font-size="12" font-weight="500" fill="#64748B">FRIEND LIST ITEM</text>
  <rect x="24" y="1855" width="327" height="60" rx="8" fill="#FFFFFF" stroke="#E2E8F0"/>
  <circle cx="54" cy="1885" r="16" fill="#2563EB"/>
  <text x="50" y="1890" text-anchor="middle" font-size="12" font-weight="bold" fill="#FFFFFF">A</text>
  <circle cx="62" cy="1877" r="4" fill="#22C55E"/>
  <text x="78" y="1880" font-size="14" font-weight="500" fill="#0F172A">Alice_Player</text>
  <text x="78" y="1895" font-size="12" fill="#64748B">온라인 • 레벨 23</text>
  <rect x="295" y="1875" width="40" height="20" rx="10" fill="#2563EB"/>
  <text x="315" y="1888" text-anchor="middle" font-size="10" font-weight="500" fill="#FFFFFF">초대</text>

  <!-- Game History Item -->
  <rect x="24" y="1925" width="327" height="60" rx="8" fill="#FFFFFF" stroke="#E2E8F0"/>
  <rect x="40" y="1941" width="24" height="24" rx="4" fill="#22C55E"/>
  <text x="48" y="1957" text-anchor="middle" font-size="12" font-weight="bold" fill="#FFFFFF">W</text>
  <text x="78" y="1950" font-size="14" font-weight="500" fill="#0F172A">승리 - 웨이브 15</text>
  <text x="78" y="1965" font-size="12" fill="#64748B">2시간 전 • +150 XP</text>
  <text x="295" y="1950" font-size="12" font-weight="500" fill="#22C55E">+300</text>
  <text x="295" y="1965" font-size="10" fill="#64748B">골드</text>

  <!-- 게임 특화 컴포넌트 -->
  <text x="24" y="2025" font-size="16" font-weight="600" fill="#0F172A">Game-Specific Components</text>

  <!-- Tower Card -->
  <text x="24" y="2050" font-size="12" font-weight="500" fill="#64748B">TOWER SELECTION CARD</text>
  <rect x="24" y="2060" width="100" height="120" rx="8" fill="#FFFFFF" stroke="#2563EB" stroke-width="2"/>
  <rect x="44" y="2080" width="60" height="40" rx="4" fill="#2563EB"/>
  <rect x="54" y="2090" width="40" height="20" rx="2" fill="#FFFFFF"/>
  <text x="74" y="2140" text-anchor="middle" font-size="12" font-weight="500" fill="#0F172A">기본 타워</text>
  <text x="74" y="2155" text-anchor="middle" font-size="10" fill="#64748B">100 골드</text>
  <circle cx="114" cy="2070" r="8" fill="#F59E0B"/>
  <text x="110" y="2075" text-anchor="middle" font-size="8" font-weight="bold" fill="#FFFFFF">1</text>

  <!-- Resource Display -->
  <rect x="140" y="2060" width="211" height="40" rx="8" fill="#FFFFFF" stroke="#E2E8F0"/>
  <circle cx="160" cy="2080" r="12" fill="#F59E0B"/>
  <text x="156" y="2085" text-anchor="middle" font-size="10" font-weight="bold" fill="#FFFFFF">$</text>
  <text x="180" y="2085" font-size="14" font-weight="500" fill="#0F172A">1,250</text>

  <circle cx="240" cy="2080" r="12" fill="#EF4444"/>
  <text x="236" y="2085" text-anchor="middle" font-size="10" font-weight="bold" fill="#FFFFFF">♥</text>
  <text x="260" y="2085" font-size="14" font-weight="500" fill="#0F172A">85/100</text>

  <circle cx="320" cy="2080" r="12" fill="#10B981"/>
  <text x="316" y="2085" text-anchor="middle" font-size="10" font-weight="bold" fill="#FFFFFF">~</text>
  <text x="340" y="2085" font-size="14" font-weight="500" fill="#0F172A">7</text>

  <!-- Wave Progress -->
  <rect x="140" y="2110" width="211" height="70" rx="8" fill="#FFFFFF" stroke="#E2E8F0"/>
  <text x="155" y="2130" font-size="12" font-weight="500" fill="#0F172A">웨이브 7/15</text>
  <rect x="155" y="2140" width="181" height="6" rx="3" fill="#E2E8F0"/>
  <rect x="155" y="2140" width="84" height="6" rx="3" fill="#10B981"/>
  <text x="155" y="2160" font-size="10" fill="#64748B">적 15/30 처치</text>
  <text x="155" y="2172" font-size="10" fill="#64748B">다음 웨이브까지 15초</text>

  <!-- 스페이싱 가이드 -->
  <text x="24" y="2220" font-size="16" font-weight="600" fill="#0F172A">Spacing Guide</text>

  <text x="24" y="2245" font-size="12" font-weight="500" fill="#64748B">SPACING SYSTEM (4px base unit)</text>

  <!-- Spacing Examples -->
  <rect x="24" y="2255" width="4" height="20" fill="#2563EB"/>
  <text x="35" y="2270" font-size="10" fill="#64748B">xs: 4px</text>

  <rect x="80" y="2255" width="8" height="20" fill="#2563EB"/>
  <text x="95" y="2270" font-size="10" fill="#64748B">sm: 8px</text>

  <rect x="140" y="2255" width="16" height="20" fill="#2563EB"/>
  <text x="165" y="2270" font-size="10" fill="#64748B">md: 16px</text>

  <rect x="210" y="2255" width="24" height="20" fill="#2563EB"/>
  <text x="245" y="2270" font-size="10" fill="#64748B">lg: 24px</text>

  <rect x="280" y="2255" width="32" height="20" fill="#2563EB"/>
  <text x="320" y="2270" font-size="10" fill="#64748B">xl: 32px</text>

  <!-- 그림자 및 효과 -->
  <text x="24" y="2310" font-size="16" font-weight="600" fill="#0F172A">Shadows &amp; Effects</text>

  <!-- Shadow Examples -->
  <rect x="26" y="2332" width="80" height="50" rx="8" fill="#E2E8F0"/>
  <rect x="24" y="2330" width="80" height="50" rx="8" fill="#FFFFFF" stroke="#E2E8F0"/>
  <text x="64" y="2360" text-anchor="middle" font-size="10" fill="#64748B">Small Shadow</text>

  <rect x="122" y="2334" width="80" height="50" rx="8" fill="#CBD5E1"/>
  <rect x="120" y="2330" width="80" height="50" rx="8" fill="#FFFFFF" stroke="#E2E8F0"/>
  <text x="160" y="2360" text-anchor="middle" font-size="10" fill="#64748B">Medium Shadow</text>

  <rect x="220" y="2338" width="80" height="50" rx="8" fill="#94A3B8"/>
  <rect x="216" y="2330" width="80" height="50" rx="8" fill="#FFFFFF" stroke="#E2E8F0"/>
  <text x="256" y="2360" text-anchor="middle" font-size="10" fill="#64748B">Large Shadow</text>

  <!-- 푸터 -->
  <rect x="0" y="2390" width="375" height="10" fill="#E2E8F0"/>
</svg>
