<svg viewBox="0 0 375 812" xmlns="http://www.w3.org/2000/svg">
  <!-- 배경 -->
  <rect width="375" height="812" fill="#F8FAFC"/>

  <!-- 헤더 -->
  <rect x="0" y="44" width="375" height="60" fill="#FFFFFF"/>
  <text x="24" y="79" font-size="18" font-weight="600" fill="#0F172A">게임 로비</text>
  <rect x="315" y="59" width="36" height="36" rx="18" fill="#F1F5F9"/>
  <text x="333" y="82" text-anchor="middle" font-size="16" fill="#64748B">⚙</text>

  <!-- 게임 설정 -->
  <rect x="24" y="124" width="327" height="100" rx="12" fill="#FFFFFF" stroke="#E2E8F0"/>
  <text x="36" y="149" font-size="16" font-weight="500" fill="#0F172A">게임 설정</text>

  <text x="36" y="175" font-size="14" fill="#64748B">게임 속도</text>
  <rect x="36" y="185" width="80" height="28" rx="6" fill="#2563EB"/>
  <text x="76" y="204" text-anchor="middle" font-size="12" font-weight="500" fill="#FFFFFF">1x</text>

  <rect x="124" y="185" width="80" height="28" rx="6" fill="#F1F5F9" stroke="#E2E8F0"/>
  <text x="164" y="204" text-anchor="middle" font-size="12" fill="#64748B">2x</text>

  <rect x="212" y="185" width="80" height="28" rx="6" fill="#F1F5F9" stroke="#E2E8F0"/>
  <text x="252" y="204" text-anchor="middle" font-size="12" fill="#64748B">3x</text>

  <!-- 매치메이킹 상태 -->
  <rect x="24" y="244" width="327" height="80" rx="12" fill="#FFFFFF" stroke="#E2E8F0"/>
  <circle cx="64" cy="284" r="8" fill="#10B981"/>
  <text x="84" y="280" font-size="14" font-weight="500" fill="#0F172A">매치 대기 중</text>
  <text x="84" y="298" font-size="12" fill="#64748B">게임 속도: 보통 • 예상 대기시간: 30초</text>

  <!-- 플레이어 목록 -->
  <text x="24" y="354" font-size="16" font-weight="500" fill="#0F172A">대기 중인 플레이어</text>

  <rect x="24" y="370" width="327" height="60" rx="8" fill="#FFFFFF" stroke="#E2E8F0"/>
  <circle cx="54" cy="400" r="16" fill="#2563EB"/>
  <text x="82" y="397" font-size="14" font-weight="500" fill="#0F172A">나</text>
  <text x="82" y="413" font-size="12" fill="#64748B">레벨 15</text>
  <rect x="315" y="388" width="24" height="24" rx="4" fill="#10B981"/>

  <rect x="24" y="438" width="327" height="60" rx="8" fill="#FFFFFF" stroke="#E2E8F0"/>
  <circle cx="54" cy="468" r="16" fill="#64748B"/>
  <text x="82" y="465" font-size="14" fill="#64748B">대기 중...</text>
  <text x="82" y="481" font-size="12" fill="#64748B">플레이어 찾는 중</text>

  <!-- 액션 버튼 -->
  <rect x="24" y="700" width="327" height="48" rx="24" fill="#EF4444"/>
  <text x="187.5" y="729" text-anchor="middle" font-size="16" font-weight="500" fill="#FFFFFF">매치 취소</text>
</svg>
