<svg viewBox="0 0 375 812" xmlns="http://www.w3.org/2000/svg">
  <!-- 배경 -->
  <rect width="375" height="812" fill="#F8FAFC"/>
  
  <!-- 헤더 -->
  <rect x="0" y="44" width="375" height="60" fill="#FFFFFF"/>
  <text x="187.5" y="79" text-anchor="middle" font-size="18" font-weight="600" fill="#0F172A">게임 결과</text>
  
  <!-- 결과 카드 -->
  <rect x="24" y="124" width="327" height="120" rx="12" fill="#FFFFFF" stroke="#E2E8F0"/>
  <circle cx="187.5" cy="164" r="24" fill="#22C55E"/>
  <text x="187.5" y="172" text-anchor="middle" font-size="16" font-weight="600" fill="#FFFFFF">승리</text>
  
  <text x="187.5" y="200" text-anchor="middle" font-size="20" font-weight="600" fill="#0F172A">웨이브 10 클리어!</text>
  <text x="187.5" y="224" text-anchor="middle" font-size="14" fill="#64748B">플레이 시간: 8분 32초</text>
  
  <!-- 통계 -->
  <rect x="24" y="264" width="327" height="200" rx="12" fill="#FFFFFF" stroke="#E2E8F0"/>
  <text x="36" y="289" font-size="16" font-weight="500" fill="#0F172A">게임 통계</text>
  
  <!-- 통계 항목들 -->
  <text x="36" y="320" font-size="14" fill="#64748B">처치한 적</text>
  <text x="315" y="320" text-anchor="end" font-size="14" font-weight="500" fill="#0F172A">127</text>
  
  <text x="36" y="345" font-size="14" fill="#64748B">배치한 타워</text>
  <text x="315" y="345" text-anchor="end" font-size="14" font-weight="500" fill="#0F172A">15</text>
  
  <text x="36" y="370" font-size="14" fill="#64748B">획득 골드</text>
  <text x="315" y="370" text-anchor="end" font-size="14" font-weight="500" fill="#0F172A">1,250</text>
  
  <text x="36" y="395" font-size="14" fill="#64748B">최종 점수</text>
  <text x="315" y="395" text-anchor="end" font-size="16" font-weight="600" fill="#2563EB">8,750</text>
  
  <!-- 보상 -->
  <rect x="24" y="484" width="327" height="80" rx="12" fill="#FEF3C7" stroke="#F59E0B"/>
  <text x="36" y="509" font-size="14" font-weight="500" fill="#92400E">획득 보상</text>
  <text x="36" y="530" font-size="12" fill="#92400E">경험치 +150</text>
  <text x="36" y="548" font-size="12" fill="#92400E">코인 +50</text>
  
  <!-- 액션 버튼 -->
  <rect x="24" y="590" width="159" height="48" rx="24" fill="#FFFFFF" stroke="#E2E8F0"/>
  <text x="103.5" y="619" text-anchor="middle" font-size="16" font-weight="500" fill="#0F172A">홈으로</text>
  
  <rect x="192" y="590" width="159" height="48" rx="24" fill="#2563EB"/>
  <text x="271.5" y="619" text-anchor="middle" font-size="16" font-weight="500" fill="#FFFFFF">다시 플레이</text>
</svg>
