<svg width="375" height="812" viewBox="0 0 375 812" fill="none" xmlns="http://www.w3.org/2000/svg">
  <defs>
    <style>
      .h1 { font-family: 'Inter', 'Pretendard', sans-serif; font-size: 24px; font-weight: bold; fill: #0F172A; }
      .body-large { font-family: 'Inter', 'Pretendard', sans-serif; font-size: 16px; fill: #0F172A; }
      .text-secondary { font-family: 'Inter', 'Pretendard', sans-serif; font-size: 14px; fill: #64748B; }
      .chevron { fill: #64748B; font-size: 20px; text-anchor: middle; }
      .icon { fill: #0F172A; stroke-width: 1.5; stroke-linejoin: round; stroke-linecap: round; }
    </style>
  </defs>

  <!-- Background -->
  <rect width="375" height="812" fill="#F8FAFC"/>

  <!-- Status Bar -->
  <rect width="375" height="44" fill="#E2E8F0" />
  <text x="187.5" y="28" text-anchor="middle" font-family="Inter, Pretendard, sans-serif" font-size="12px" fill="#0F172A">9:41</text>
  <!-- Mockup status bar icons -->
  <rect x="330" y="15" width="20" height="12" rx="2" stroke="#0F172A" stroke-width="1" fill="#FFFFFF"/>
  <rect x="332" y="17" width="16" height="8" fill="#0F172A"/>
  <rect x="305" y="15" width="18" height="12" rx="2" fill="none" stroke="#0F172A" stroke-width="1"/>
  <line x1="308" y1="24" x2="310" y2="18" stroke="#0F172A" stroke-width="1"/>
  <line x1="311" y1="24" x2="313" y2="20" stroke="#0F172A" stroke-width="1"/>
  <line x1="314" y1="24" x2="316" y2="22" stroke="#0F172A" stroke-width="1"/>

  <!-- Main Content Area -->
  <g transform="translate(0, 44)">
    <!-- Title -->
    <text x="20" y="40" class="h1">설정</text>

    <!-- Settings List -->
    <g transform="translate(20, 80)">
      <!-- 계정 (Account) -->
      <rect y="0" width="335" height="60" rx="8" fill="#FFFFFF" stroke="#E2E8F0"/>
      <path class="icon" d="M25 22 C27.7614 22 30 19.7614 30 17 C30 14.2386 27.7614 12 25 12 C22.2386 12 20 14.2386 20 17 C20 19.7614 22.2386 22 25 22 Z M18 30 C18 26.6863 21.134 24 25 24 C28.866 24 32 26.6863 32 30 V31 H18 V30 Z" transform="translate(0, 15)"/>
      <text x="50" y="35" class="body-large">계정</text>
      <text x="310" y="35" class="chevron">&gt;</text>

      <!-- 알림 (Notifications) -->
      <rect y="70" width="335" height="60" rx="8" fill="#FFFFFF" stroke="#E2E8F0"/>
      <path class="icon" d="M20 20 H30 C30 20 28 16 25 16 C22 16 20 20 20 20 Z M18 20 H32 V22 H18 V20 Z M25 28 C26.6569 28 28 26.6569 28 25 L22 25 C22 26.6569 23.3431 28 25 28 Z" transform="translate(0, 85)"/>
      <text x="50" y="105" class="body-large">알림</text>
      <text x="310" y="105" class="chevron">&gt;</text>

      <!-- 게임 설정 (Game Settings) -->
      <rect y="140" width="335" height="60" rx="8" fill="#FFFFFF" stroke="#E2E8F0"/>
      <path class="icon" d="M25,16 A2,2 0 0,0 23.4,17.2 L22.8,19.4 A5.5,5.5 0 0,0 20.5,20.5 L18.3,20 L17.2,21.4 A2,2 0 0,0 16,23 L16,27 A2,2 0 0,0 17.2,28.6 L18.3,29.9 L20.5,29.4 A5.5,5.5 0 0,0 22.8,30.6 L23.4,32.8 A2,2 0 0,0 25,34 L29,34 A2,2 0 0,0 30.6,32.8 L31.2,30.6 A5.5,5.5 0 0,0 33.5,29.5 L35.7,30 L36.8,28.6 A2,2 0 0,0 38,27 L38,23 A2,2 0 0,0 36.8,21.4 L35.7,20.1 L33.5,20.6 A5.5,5.5 0 0,0 31.2,19.4 L30.6,17.2 A2,2 0 0,0 29,16 L25,16 Z M27,25 A3,3 0 1,1 27,31 A3,3 0 0,1 27,25 Z" transform="translate(-2, 155)"/>
      <text x="50" y="175" class="body-large">게임 설정</text>
      <text x="310" y="175" class="chevron">&gt;</text>

      <!-- 화면 모드 (Display Mode) -->
      <rect y="210" width="335" height="60" rx="8" fill="#FFFFFF" stroke="#E2E8F0"/>
      <path class="icon" d="M25 15 C19.4772 15 15 19.4772 15 25 C15 30.5228 19.4772 35 25 35 C27.7302 35 30.2135 33.9897 32 32.3028 C30.5971 32.7354 29.0901 33 27.5 33 C21.1487 33 16 27.8513 16 21.5 C16 17.9369 18.0593 14.8458 21.0038 13.1061 C20.0013 14.1371 19.6667 15 19.6667 15 L25 15Z" transform="translate(-2, 225)"/>
      <text x="50" y="245" class="body-large">화면 모드</text>
      <!-- Toggle Switch -->
      <rect x="280" y="225" width="40" height="20" rx="10" fill="#E2E8F0"/>
      <circle cx="290" cy="235" r="8" fill="#FFFFFF" stroke="#CBD5E1" stroke-width="1"/>
      <!-- <circle cx="310" cy="235" r="8" fill="#4F46E5"/> toggle on state -->

      <!-- 도움말 (Help) -->
      <rect y="280" width="335" height="60" rx="8" fill="#FFFFFF" stroke="#E2E8F0"/>
      <path class="icon" d="M25 16 A9 9 0 0 0 16 25 C16 28.0363 17.6649 30.7003 20 32.4014 V35 H30 V32.4014 C32.3351 30.7003 34 28.0363 34 25 A9 9 0 0 0 25 16 Z M25 29 C24.4477 29 24 28.5523 24 28 V27 H26 V28 C26 28.5523 25.5523 29 25 29 Z M25 20 C23.3431 20 22 21.3431 22 23 C22 23.8284 22.3358 24.5784 22.8787 25.1213 C23.4216 25.6642 24.1716 26 25 26 C26.6569 26 28 24.6569 28 23 C28 21.3431 26.6569 20 25 20 Z" transform="translate(0, 295)"/>
      <text x="50" y="315" class="body-large">도움말</text>
      <text x="310" y="315" class="chevron">&gt;</text>

      <!-- 정보 (About) -->
      <rect y="350" width="335" height="60" rx="8" fill="#FFFFFF" stroke="#E2E8F0"/>
      <path class="icon" d="M25 16 C20.0294 16 16 20.0294 16 25 C16 29.9706 20.0294 34 25 34 C29.9706 34 34 29.9706 34 25 C34 20.0294 29.9706 16 25 16 Z M24 20 H26 V22 H24 V20 Z M24 24 H26 V29 H24 V24 Z" transform="translate(0, 365)"/>
      <text x="50" y="385" class="body-large">정보</text>
      <text x="310" y="385" class="chevron">&gt;</text>
    </g>
  </g>

  <!-- Bottom Navigation Bar -->
  <rect y="734" width="375" height="44" fill="#FFFFFF" stroke="#E2E8F0"/>
  <g transform="translate(0, 734)">
    <!-- Tab 1 (e.g., Home) -->
    <rect x="0" y="0" width="93.75" height="44" fill="transparent"/>
    <text x="46.875" y="30" text-anchor="middle" class="text-secondary">홈</text>
    <!-- Tab 2 (e.g., Search) -->
    <rect x="93.75" y="0" width="93.75" height="44" fill="transparent"/>
    <text x="140.625" y="30" text-anchor="middle" class="text-secondary">검색</text>
    <!-- Tab 3 (e.g., Notifications) -->
    <rect x="187.5" y="0" width="93.75" height="44" fill="transparent"/>
    <text x="234.375" y="30" text-anchor="middle" class="text-secondary">알림</text>
    <!-- Tab 4 (Profile - Active, assuming Settings is part of Profile flow) -->
    <rect x="281.25" y="0" width="93.75" height="44" fill="#E0E7FF" />
    <text x="328.125" y="30" text-anchor="middle" class="body-large" style="fill: #4338CA;">프로필</text>
  </g>

  <!-- Safe Area -->
  <rect y="778" width="375" height="34" fill="#E2E8F0" />
</svg>
