<svg viewBox="0 0 375 812" xmlns="http://www.w3.org/2000/svg">
  <!-- 배경 -->
  <rect width="375" height="812" fill="#F8FAFC"/>
  
  <!-- 상단 Safe Area -->
  <rect width="375" height="44" fill="#FFFFFF"/>
  
  <!-- 헤더 -->
  <rect x="0" y="44" width="375" height="80" fill="#FFFFFF"/>
  <text x="24" y="84" font-size="24" font-weight="600" fill="#0F172A">Defense Allies</text>
  <text x="24" y="108" font-size="14" fill="#64748B">함께 막아요</text>
  
  <!-- 프로필 카드 -->
  <rect x="24" y="140" width="327" height="100" rx="12" fill="#FFFFFF" stroke="#E2E8F0"/>
  <circle cx="64" cy="190" r="24" fill="#2563EB"/>
  <text x="104" y="185" font-size="16" font-weight="500" fill="#0F172A">플레이어명</text>
  <text x="104" y="205" font-size="12" fill="#64748B">레벨 15 • 승률 73%</text>
  
  <!-- 메인 액션 버튼 -->
  <rect x="24" y="260" width="327" height="56" rx="28" fill="#2563EB"/>
  <text x="187.5" y="295" text-anchor="middle" font-size="16" font-weight="500" fill="#FFFFFF">게임 시작</text>
  
  <!-- 서브 메뉴 -->
  <rect x="24" y="340" width="159" height="120" rx="12" fill="#FFFFFF" stroke="#E2E8F0"/>
  <text x="103.5" y="375" text-anchor="middle" font-size="14" font-weight="500" fill="#0F172A">통계</text>
  <text x="103.5" y="395" text-anchor="middle" font-size="12" fill="#64748B">게임 기록 확인</text>
  
  <rect x="192" y="340" width="159" height="120" rx="12" fill="#FFFFFF" stroke="#E2E8F0"/>
  <text x="271.5" y="375" text-anchor="middle" font-size="14" font-weight="500" fill="#0F172A">설정</text>
  <text x="271.5" y="395" text-anchor="middle" font-size="12" fill="#64748B">게임 환경 설정</text>
  
  <!-- 하단 네비게이션 -->
  <rect x="0" y="734" width="375" height="44" fill="#FFFFFF" stroke="#E2E8F0"/>
  <circle cx="93.75" cy="756" r="4" fill="#2563EB"/>
  <circle cx="187.5" cy="756" r="4" fill="#E2E8F0"/>
  <circle cx="281.25" cy="756" r="4" fill="#E2E8F0"/>
</svg>
